<svg xmlns="http://www.w3.org/2000/svg" xmlns:xlink="http://www.w3.org/1999/xlink" width="79" height="50" viewBox="0 0 79 50">
    <defs>
        <path id="prefix__a" d="M0 0.102L64.234 0.102 64.234 14.578 0 14.578z"/>
        <path id="prefix__c" d="M0.342 0.137L13.546 0.137 13.546 13.142 0.342 13.142z"/>
    </defs>
    <g fill="none" fill-rule="evenodd">
        <g>
            <path fill="#333E47" d="M45.872 23.097v-1.162c0-.33.163-.558.508-.538.645.092 1.556.182 2.202.049.844-.176 1.45-.774 1.809-1.594.505-1.156.839-2.087 1.05-2.698L45.029 1.27c-.109-.27-.14-.77.398-.77h2.241c.428 0 .602.271.697.537l4.65 12.903L57.45 1.037c.092-.264.273-.538.697-.538h2.114c.535 0 .505.5.399.77L54.3 17.65c-.824 2.182-1.92 5.654-4.39 6.257-1.239.324-2.8.207-3.718-.177-.232-.116-.32-.427-.32-.632M39.845 13.293v-3.267c-1.061-.29-2.817-.41-3.496-.41-1.074 0-2.249.253-2.862.914-.46.485-.667 1.18-.667 1.852 0 .87.301 1.742 1.004 2.172.815.554 2.082.487 3.272.15 1.142-.325 2.215-.9 2.749-1.411zm3.038 3.161c0 .296-.243.538-.54.538h-1.58c-.341 0-.575-.247-.618-.538l-.16-1.076c-.726.615-1.617 1.155-2.584 1.532-1.859.722-4.002.84-5.819-.274-1.314-.807-2.01-2.383-2.01-4.009 0-1.258.387-2.505 1.247-3.411 1.147-1.237 2.808-1.844 4.817-1.844 1.211 0 2.946.142 4.209.555V5.762c0-2.202-.927-3.155-3.371-3.155-1.868 0-3.297.282-5.286.9-.318.011-.505-.23-.505-.527V1.746c0-.296.254-.583.528-.67C32.63.457 34.64.071 36.78 0c2.788 0 6.102.628 6.102 4.917v11.537zM14.821 23.664h-2.117c-.296 0-.539-.242-.539-.538V1.066c0-.296.243-.538.539-.538h1.62c.341 0 .574.247.617.538l.17 1.155C16.63.874 18.585.011 20.447.011c5.214 0 6.929 4.295 6.929 8.764 0 4.78-2.623 8.62-7.058 8.62-1.869 0-3.615-.689-4.958-1.887v7.618c0 .296-.242.538-.538.538m4.755-21.008c3.507 0 4.463 2.757 4.463 5.915.019 2.13-.371 4.027-1.474 5.114-.825.814-1.747 1.035-3.133 1.035-1.236 0-2.86-.643-4.073-1.54V4.15c1.263-.97 2.874-1.494 4.217-1.494" transform="translate(4 8)"/>
            <g transform="translate(4 8) translate(0 24.223)">
                <mask id="prefix__b" fill="#fff">
                    <use xlink:href="#prefix__a"/>
                </mask>
                <path fill="#FE9B01" d="M63.667 5.86c-7.712 5.692-18.892 8.718-28.519 8.718-13.492 0-25.642-4.988-34.836-13.29C-.41.637.234-.253 1.102.252 11.022 6.023 23.289 9.5 35.958 9.5c8.547 0 17.942-1.773 26.587-5.44 1.304-.553 2.397.86 1.122 1.802" mask="url(#prefix__b)"/>
            </g>
            <g transform="translate(4 8) translate(56.889 22.801)">
                <mask id="prefix__d" fill="#fff">
                    <use xlink:href="#prefix__c"/>
                </mask>
                <path fill="#FE9B01" d="M9.986 3.619C9 2.356 3.466 3.021.98 3.319c-.752.09-.868-.568-.19-1.044C5.204-.825 12.437.069 13.277 1.108c.847 1.046-.223 8.298-4.358 11.759-.637.531-1.243.247-.96-.455.931-2.325 3.015-7.529 2.027-8.793" mask="url(#prefix__d)"/>
            </g>
        </g>
    </g>
</svg>
