<svg xmlns="http://www.w3.org/2000/svg" xmlns:xlink="http://www.w3.org/1999/xlink" width="105" height="50" viewBox="0 0 105 50">
    <defs>
        <path id="prefix__a" d="M0 0.195L31.983 0.195 31.983 32.178 0 32.178z"/>
        <path id="prefix__c" d="M0.227 0.195L25.263 0.195 25.263 12.596 0.227 12.596z"/>
    </defs>
    <g fill="none" fill-rule="evenodd">
        <g>
            <path fill="#5F6267" d="M45.764 5.803v9.48h5.84c1.39 0 2.54-.468 3.45-1.403.935-.935 1.403-2.048 1.403-3.337 0-1.264-.468-2.363-1.403-3.299-.91-.96-2.06-1.44-3.45-1.44h-5.84zm0 12.816v10.996h-3.488V2.467h9.251c2.351 0 4.348.783 5.991 2.35 1.669 1.568 2.503 3.476 2.503 5.726 0 2.3-.834 4.222-2.503 5.763-1.618 1.542-3.615 2.313-5.99 2.313h-5.764zM64.04 23.928c0 .91.385 1.668 1.157 2.274.77.607 1.674.91 2.71.91 1.466 0 2.775-.543 3.925-1.63 1.15-1.087 1.725-2.363 1.725-3.83-1.087-.859-2.604-1.289-4.55-1.289-1.416 0-2.597.342-3.545 1.024-.948.683-1.422 1.53-1.422 2.54m4.512-13.498c2.579 0 4.613.69 6.105 2.067 1.491 1.378 2.237 3.267 2.237 5.668v11.451h-3.337v-2.578h-.151c-1.441 2.123-3.363 3.185-5.764 3.185-2.047 0-3.76-.607-5.137-1.82-1.378-1.213-2.067-2.73-2.067-4.55 0-1.92.727-3.45 2.18-4.588 1.454-1.138 3.394-1.706 5.82-1.706 2.073 0 3.78.379 5.12 1.137V17.9c0-1.214-.481-2.243-1.442-3.09-.96-.847-2.085-1.27-3.374-1.27-1.947 0-3.489.821-4.626 2.464l-3.071-1.934c1.693-2.427 4.196-3.64 7.507-3.64" transform="translate(4 6)"/>
            <g transform="translate(4 6) translate(0 .074)">
                <mask id="prefix__b" fill="#fff">
                    <use xlink:href="#prefix__a"/>
                </mask>
                <path fill="#FFC107" d="M31.672 13.055h-1.288v-.067H15.992v6.397h9.037c-1.318 3.724-4.861 6.397-9.037 6.397-5.3 0-9.595-4.297-9.595-9.595 0-5.3 4.296-9.595 9.595-9.595 2.445 0 4.67.922 6.365 2.43l4.523-4.524C24.024 1.837 20.204.195 15.992.195 7.16.195 0 7.355 0 16.187c0 8.831 7.16 15.991 15.992 15.991 8.83 0 15.991-7.16 15.991-15.991 0-1.073-.11-2.12-.31-3.132" mask="url(#prefix__b)"/>
            </g>
            <g transform="translate(4 6) translate(1.617 .074)">
                <mask id="prefix__d" fill="#fff">
                    <use xlink:href="#prefix__c"/>
                </mask>
                <path fill="#FF3D00" d="M.227 8.743l5.254 3.853c1.421-3.52 4.864-6.004 8.894-6.004 2.445 0 4.67.922 6.365 2.43l4.523-4.524C22.407 1.837 18.587.195 14.375.195 8.232.195 2.905 3.663.227 8.743" mask="url(#prefix__d)"/>
            </g>
            <path fill="#4CAF50" d="M15.992 32.253c4.13 0 7.883-1.581 10.721-4.152l-4.95-4.188c-1.605 1.216-3.6 1.943-5.771 1.943-4.16 0-7.692-2.652-9.022-6.354L1.755 23.52c2.647 5.179 8.021 8.733 14.237 8.733" transform="translate(4 6)"/>
            <path fill="#1976D2" d="M31.672 13.129h-1.288v-.066H15.992v6.396h9.037c-.633 1.79-1.784 3.331-3.268 4.455.001 0 .002 0 .003-.002l4.95 4.188c-.351.318 5.27-3.843 5.27-11.84 0-1.071-.111-2.118-.312-3.131" transform="translate(4 6)"/>
            <path fill="#5F6267" d="M96.269 11.036L84.629 37.805 81.027 37.805 85.349 28.44 77.69 11.036 81.482 11.036 87.018 24.382 87.093 24.382 92.478 11.036z" transform="translate(4 6)"/>
        </g>
    </g>
</svg>
