<svg xmlns="http://www.w3.org/2000/svg" width="96" height="50" viewBox="0 0 96 50">
    <g fill="none">
        <path fill="#0068AF" d="M35.761 26.804L29.031 26.804 33.238.471 39.968.471zM23.366.47l-6.417 18.114-.758-3.903-2.265-11.838S13.652.471 10.733.471H.125L0 .929c2.484.633 4.858 1.648 7.04 3.01l5.848 22.865h7.002L30.598.477 23.366.471zM76.313 26.804h6.18L77.105.477h-5.412c-2.5 0-3.108 1.964-3.108 1.964L58.539 26.81h7.002l1.427-3.919h8.554l.791 3.912zm-7.409-9.317l3.544-9.852 1.99 9.852h-5.534zM59.072 6.814l.962-5.656C58.089.447 56.045.056 53.979 0c-3.348 0-11.262 1.487-11.262 8.716 0 6.814 9.311 6.888 9.311 10.46 0 3.57-8.35 2.936-11.104.68l-1.017 5.913s3.008 1.487 7.61 1.487c4.603 0 11.522-2.422 11.522-9.016 0-6.845-9.394-7.483-9.394-10.46 0-2.976 6.547-2.592 9.427-.966z" transform="translate(6 10)"/>
        <path fill="#F7A541" d="M16.191 14.684l-2.265-11.84S13.652.47 10.733.47H.125L0 .929c3.652.945 7.06 2.683 9.99 5.095 2.784 2.278 4.923 5.266 6.201 8.66z" transform="translate(6 10)"/>
    </g>
</svg>
